<svg height="465pt" viewBox="0 -75 465.46901 465" width="465pt" xmlns="http://www.w3.org/2000/svg"><path d="m465.21875 215.378906c-.824219-46.316406-38.613281-83.433594-84.9375-83.421875-2.621094 0-5.339844.035157-8.101562.214844-3.277344-73.304687-63.960938-131.9375-138.082032-131.9375-30.410156-.09375-59.980468 9.941406-84.050781 28.523437-22.332031 17.199219-38.929687 40.753907-47.609375 67.570313-59.03125 9.285156-102.5 60.191406-102.4296875 119.949219v.257812.351563c-.00390625.117187-.0078125 0-.0078125.117187.0078125 54.007813 43.945312 97.707032 97.953125 97.707032h269.570313c54.007812 0 97.945312-43.699219 97.945312-97.707032 0-.550781-.082031-1.097656-.25-1.625zm-253.28125-35.554687c-2.714844-2.753907-2.6875-7.1875.0625-9.90625l10.320312-10.207031h-23.535156c-15.613281.09375-28.222656 12.777343-28.222656 28.390624 0 15.617188 12.609375 28.300782 28.222656 28.390626 2.550782-.078126 4.945313 1.234374 6.246094 3.433593s1.300781 4.929688 0 7.128907c-1.300781 2.195312-3.695312 3.511718-6.246094 3.429687-23.410156 0-42.386718-18.976563-42.386718-42.386719 0-23.40625 18.976562-42.386718 42.386718-42.386718h23.441406l-10.199218-9.976563c-2.757813-2.707031-2.796875-7.132813-.089844-9.890625 2.703125-2.753906 7.132812-2.796875 9.886719-.089844l22.453125 22 .023437.023438c.109375.109375.214844.222656.3125.335937.050781.058594.121094.109375.167969.167969.125.152344.265625.3125.378906.476562.019532.023438.082032.042969.101563.066407.714843 1.007812 1.152343 2.183593 1.269531 3.414062.015625.164063.210938.332031.210938.5v.011719c0 .101562-.195313.191406-.199219.285156-.007813.136719-.191407.273438-.207031.410156-.019532.191407-.050782.378907-.082032.566407-.007812.039062-.011718.078125-.019531.117187-.226563 1.132813-.730469 2.191406-1.46875 3.082032-.027344.035156-.058594.0625-.085937.101562-.121094.136719-.242188.277344-.375.40625l-.015626.015625-22.449218 22.160156c-2.753906 2.714844-7.1875 2.683594-9.902344-.070312zm54.753906 50.886719h-23.4375l10.199219 9.890624c1.324219 1.277344 2.082031 3.03125 2.097656 4.875.019531 1.839844-.699219 3.609376-2 4.914063-2.703125 2.761719-7.136719 2.808594-9.898437.101563l-22.449219-22-.027344-.027344c-.109375-.109375-.21875-.226563-.320312-.339844-.050781-.054688-.113281-.105469-.160157-.160156-.136718-.167969-.289062-.339844-.410156-.515625-.007812-.011719-.058594-.019531-.066406-.027344-.722656-1.015625-1.160156-2.203125-1.273438-3.445313-.011718-.15625-.210937-.3125-.210937-.472656v-.011718c0-.101563.195313-.191407.203125-.285157.003906-.136719.191406-.277343.199219-.410156.019531-.191406.050781-.378906.082031-.566406.007812-.039063.011719-.078125.019531-.117188.226563-1.132812.730469-2.191406 1.46875-3.082031.027344-.03125.058594-.0625.085938-.09375.121093-.140625.242187-.273438.375-.40625 0 0 .007812 0 .015625-.007812l22.457031-22.148438c2.773437-2.714844 7.222656-2.667969 9.9375.105469 2.71875 2.773437 2.671875 7.222656-.101563 9.9375l-10.320312 10.292969h23.535156c15.664063-.089844 28.3125-12.816407 28.3125-28.480469 0-15.664063-12.648437-28.386719-28.3125-28.480469-3.863281 0-7-3.132812-7-7 0-3.863281 3.136719-7 7-7 23.382813.113281 42.277344 19.101562 42.277344 42.480469 0 23.382812-18.894531 42.367187-42.277344 42.480469zm0 0"/></svg>